<?xml version="1.0" standalone="no"?>
<!DOCTYPE svg PUBLIC "-//W3C//DTD SVG 20010904//EN"
 "http://www.w3.org/TR/2001/REC-SVG-20010904/DTD/svg10.dtd">
<svg version="1.0" xmlns="http://www.w3.org/2000/svg"
 width="1084.000000pt" height="1084.000000pt" viewBox="0 0 1084.000000 1084.000000"
 preserveAspectRatio="xMidYMid meet">
<metadata>
Created by potrace 1.11, written by Peter Selinger 2001-2013
</metadata>
<g transform="translate(0.000000,1084.000000) scale(0.100000,-0.100000)"
fill="#000000" stroke="none">
<path d="M5028 8235 c-2 -1 -57 -5 -123 -9 -66 -3 -131 -8 -145 -10 -14 -2
-54 -7 -90 -11 -211 -20 -506 -75 -735 -137 -554 -148 -1060 -395 -1455 -709
-128 -102 -354 -325 -444 -437 -141 -178 -254 -370 -330 -559 -40 -101 -89
-260 -101 -328 -2 -16 -7 -39 -9 -50 -2 -11 -7 -42 -10 -70 -13 -99 -18 -130
-22 -134 -2 -2 -218 -4 -479 -4 l-475 0 0 -114 0 -113 43 -1 c23 0 238 0 478
0 l436 0 17 -126 c87 -622 467 -1174 1111 -1614 422 -288 1023 -528 1577 -629
62 -11 122 -22 133 -24 22 -4 145 -22 210 -31 22 -2 72 -7 110 -10 39 -3 81
-8 95 -10 84 -14 597 -22 725 -11 48 4 161 13 252 21 44 3 133 15 168 21 11 2
41 6 66 9 25 3 56 8 70 10 13 3 53 10 89 16 731 126 1467 461 1948 887 486
430 754 924 801 1477 1 12 62 14 454 14 248 0 464 0 480 0 l27 1 0 114 0 113
-2322 -1 -2323 -1 -3 -112 -2 -113 42 -1 c24 0 664 0 1424 0 l1381 -1 -3 -41
c-3 -37 -7 -69 -19 -152 -36 -237 -134 -501 -270 -725 -242 -400 -611 -728
-1080 -963 -216 -108 -559 -228 -750 -263 -336 -60 -426 -69 -730 -69 -190 0
-297 5 -405 20 -14 2 -43 6 -65 8 -235 31 -513 103 -745 194 -131 51 -362 164
-445 217 -30 20 -57 36 -60 36 -7 0 -138 92 -225 159 -328 253 -583 575 -735
931 -36 84 -98 277 -108 335 -3 17 -10 53 -16 80 -6 28 -13 66 -17 85 -10 60
-13 422 -3 485 5 33 11 74 14 90 11 75 52 240 80 320 110 313 280 579 530 831
184 187 356 319 585 451 73 42 255 135 270 138 3 1 23 9 45 19 217 96 624 207
850 231 33 4 71 8 85 11 144 23 568 22 761 -2 132 -16 231 -32 307 -49 34 -8
76 -17 94 -20 17 -3 34 -8 38 -10 4 -2 20 -6 36 -9 52 -10 285 -87 394 -131
266 -107 491 -237 720 -414 79 -62 289 -262 356 -341 84 -99 244 -327 244
-348 0 -32 30 -35 423 -34 215 0 400 1 410 1 15 1 14 6 -9 44 -132 214 -289
400 -479 570 -140 125 -143 128 -278 225 -397 284 -858 492 -1392 627 -153 39
-192 47 -275 61 -14 3 -47 9 -75 14 -77 15 -233 38 -300 45 -33 3 -78 8 -100
10 -22 2 -71 7 -110 11 -66 6 -611 14 -617 9z"/>
<path d="M9050 3812 l0 -28 70 1 70 1 1 -95 c0 -53 1 -137 0 -187 0 -90 1 -92
26 -97 15 -3 27 1 30 9 3 7 6 93 6 191 l2 178 70 0 c68 0 70 1 70 25 l0 25
-172 3 -173 2 0 -28z"/>
<path d="M9500 3626 c0 -223 1 -229 43 -218 15 4 17 22 17 186 l1 181 64 -170
c36 -93 65 -175 65 -182 0 -6 8 -13 18 -15 23 -5 52 2 52 14 0 12 109 318 120
338 5 9 8 -61 7 -168 l-2 -182 30 0 30 0 0 215 0 216 -50 -3 -49 -3 -47 -135
c-26 -74 -53 -150 -60 -168 l-14 -33 -61 168 -61 168 -51 3 -52 3 0 -215z"/>
</g>
</svg>
